<svg width="29" height="29" viewBox="0 0 29 29" fill="none" xmlns="http://www.w3.org/2000/svg">
<g clip-path="url(#clip0_1_3018)">
<path d="M24.5101 0.0207221C27.2652 -0.294123 30.4217 3.64144 28.3128 6.12599L15.17 19.3974C13.0679 20.1914 10.8298 20.6431 8.67336 21.2933C8.17676 21.4028 7.72098 20.9443 7.82302 20.4378L9.5237 14.2298L9.73458 13.8739L22.5917 0.937881C23.1427 0.458768 23.7618 0.0960113 24.5033 0.0138777L24.5101 0.0207221ZM24.891 1.45806C24.0271 1.45806 23.3876 2.12882 22.8842 2.75851L26.2516 6.15336C27.3468 5.33203 28.0747 4.1274 27.0679 2.88171C26.5509 2.23833 25.7618 1.45806 24.891 1.45806ZM21.7822 3.82625L11.3264 14.3393L14.6393 17.7684L25.1904 7.19372L21.7822 3.8194V3.82625ZM13.306 18.5145L10.5917 15.7835L9.57132 19.5411L13.306 18.5145Z" fill="#3291E9"/>
<path d="M26.2381 18.4257C26.6259 18.0355 27.347 18.234 27.4626 18.7816V25.7835C27.2653 27.4809 25.9524 28.8087 24.2653 29.0072H3.31296C1.54425 28.884 0.176904 27.4193 0.00683594 25.6739V6.23566C0.136088 4.52454 1.4082 3.11458 3.10207 2.85449H10.1769C10.9524 3.07352 10.9524 4.03858 10.1769 4.2713C8.04085 4.40134 5.72792 4.11387 3.61228 4.2713C2.48983 4.35343 1.6667 5.05157 1.48983 6.1809V25.7219C1.64629 26.5911 2.27214 27.2892 3.12248 27.5014C10.034 27.6725 16.9728 27.5219 23.8912 27.5767C25.1701 27.4809 25.9728 26.6664 26.0681 25.3865C26.2245 23.2715 25.9456 20.9649 26.0681 18.8295C26.0749 18.6994 26.1701 18.5078 26.2585 18.4257H26.2381Z" fill="#3291E9"/>
</g>
<defs>
<clipPath id="clip0_1_3018">
<rect width="29" height="29" fill="white"/>
</clipPath>
</defs>
</svg>
